# xmcd
#
# Track frame offsets:
#	150
#	18818
#	34183
#	50691
#	83233
#	98761
#	109312
#	122944
#	138513
#	152133
#	170057
#	189195
#
# Disc length: 2640 seconds
#
# Revision: 1
# Processed by: cddbd v1.5.2PL0 Copyright (c) Steve Scherf et al.
# Submitted via: audiograbber 1.83.01
#
DISCID=9e0a4e0c
DTITLE=Lo-Jo - Cosmophono
DYEAR=2009
DGENRE=Blues
TTITLE0=Petit Courage
TTITLE1=Je Prends La Nuit
TTITLE2=Sur des Carnets Nus
TTITLE3=Pays Natal
TTITLE4=Cafe de la Marine
TTITLE5=Dresseur de Hasards
TTITLE6=Slam
TTITLE7=Sur L'Océan
TTITLE8=La Nuit Des Temps
TTITLE9=Yalaki
TTITLE10=Rue de la Solitude
TTITLE11=La Liberté
EXTD=
EXTT0=
EXTT1=
EXTT2=
EXTT3=
EXTT4=
EXTT5=
EXTT6=
EXTT7=
EXTT8=
EXTT9=
EXTT10=
EXTT11=
PLAYORDER=
